<?xml version="1.0" encoding="UTF-8"?>
<svg version="1.1" xmlns="http://www.w3.org/2000/svg" width="512" height="512">
<path d="M0 0 C0.76957031 0.64710937 1.53914063 1.29421875 2.33203125 1.9609375 C6.29440986 5.30963988 9.7604232 8.83656248 13.10546875 12.80078125 C14.443499 14.35399987 15.82609797 15.86934917 17.23828125 17.35546875 C44.79972662 46.41147416 63.23244002 86.5680654 69 126 C69.26055176 127.73890503 69.26055176 127.73890503 69.52636719 129.51293945 C70.92857027 139.63767053 71.40023559 149.59675873 71.375 159.8125 C71.37478851 160.61137634 71.37457703 161.41025269 71.37435913 162.2333374 C71.31821594 183.66087846 68.4182377 204.51367912 62 225 C61.74347656 225.82048828 61.48695313 226.64097656 61.22265625 227.48632812 C57.72528525 238.45535535 53.5628679 248.83746393 48.09326172 258.96972656 C46.93919717 261.11291566 45.81580468 263.27080505 44.69140625 265.4296875 C39.4097549 275.40815957 33.38439418 284.4414091 26.36376953 293.27783203 C25.17994162 294.77276975 24.02299999 296.28892295 22.87109375 297.80859375 C11.86031146 311.96531383 -1.51795436 324.47259641 -16 335 C-16.84433594 335.62777344 -17.68867188 336.25554687 -18.55859375 336.90234375 C-55.36260304 363.55352289 -100.06710119 377.50214343 -145.375 377.375 C-146.14969635 377.37412384 -146.9243927 377.37324768 -147.7225647 377.37234497 C-178.16222755 377.25992388 -207.40389726 370.93293047 -235 358 C-236.04075684 357.51877686 -236.04075684 357.51877686 -237.10253906 357.02783203 C-252.59190075 349.8041103 -266.75530631 340.78085161 -280 330 C-280.52658203 329.57638184 -281.05316406 329.15276367 -281.59570312 328.71630859 C-295.39110698 317.57354466 -307.44400363 305.24597761 -318 291 C-318.85023745 289.88019089 -319.7004977 288.7603991 -320.55078125 287.640625 C-327.3059982 278.60620883 -332.79652503 268.99505382 -338 259 C-338.35304199 258.33194336 -338.70608398 257.66388672 -339.06982422 256.97558594 C-363.97043151 209.31994786 -368.04572518 150.52240835 -352.6875 99.265625 C-336.32240398 47.19837376 -302.82590188 3.29173904 -256 -25 C-255.42056641 -25.36013184 -254.84113281 -25.72026367 -254.24414062 -26.09130859 C-174.44823325 -75.45251738 -68.90443672 -60.54364733 0 0 Z " fill="#C8CDE1" transform="translate(401,95)"/>
<path d="M0 0 C-0.44988281 0.67160156 -0.89976562 1.34320313 -1.36328125 2.03515625 C-22.01809512 34.11427599 -31.50562751 69.37973448 -35 107 C-35.95519531 107.28875 -36.91039062 107.5775 -37.89453125 107.875 C-41.05505865 108.72781093 -41.05505865 108.72781093 -42.6875 111 C-48.94814315 125.31004148 -48.52534161 140.43020995 -42.828125 154.99609375 C-40.78366047 159.3437359 -39.17658557 162.42105978 -35 165 C-32.33238236 165.25124826 -32.33238236 165.25124826 -30 165 C-29.375 168.375 -29.375 168.375 -29 172 C-29.66 172.66 -30.32 173.32 -31 174 C-32.69117076 182.08170098 -29.93531473 188.92839114 -26.05859375 195.8671875 C-24.19838197 198.69809802 -22.72435983 200.36147435 -20.0625 202.375 C-16.1042685 205.40635195 -14.21585837 209.00986149 -12.125 213.4375 C-5.01005625 228.48780546 4.12684428 241.4243327 15 254 C15.75434326 254.87615967 15.75434326 254.87615967 16.52392578 255.77001953 C49.21895594 293.3838665 97.69195062 316.74912769 147.19580078 320.82128906 C182.25669352 323.05571127 217.21948509 316.70207874 248.76953125 301.03125 C251 300 251 300 253 300 C251.37311577 306.09064782 248.19755393 311.19139464 245 316.5625 C244.41766602 317.54323486 243.83533203 318.52396973 243.23535156 319.53442383 C238.63538759 327.16847363 233.6720095 334.13185244 228 341 C227.34515625 341.8559375 226.6903125 342.711875 226.015625 343.59375 C214.94986709 357.83340747 201.5645209 370.41264283 187 381 C186.15566406 381.62777344 185.31132812 382.25554687 184.44140625 382.90234375 C147.63739696 409.55352289 102.93289881 423.50214343 57.625 423.375 C56.85030365 423.37412384 56.0756073 423.37324768 55.2774353 423.37234497 C24.83777245 423.25992388 -4.40389726 416.93293047 -32 404 C-33.04075684 403.51877686 -33.04075684 403.51877686 -34.10253906 403.02783203 C-49.59190075 395.8041103 -63.75530631 386.78085161 -77 376 C-77.52658203 375.57638184 -78.05316406 375.15276367 -78.59570312 374.71630859 C-92.39110698 363.57354466 -104.44400363 351.24597761 -115 337 C-115.85023745 335.88019089 -116.7004977 334.7603991 -117.55078125 333.640625 C-124.3059982 324.60620883 -129.79652503 314.99505382 -135 305 C-135.35304199 304.33194336 -135.70608398 303.66388672 -136.06982422 302.97558594 C-160.97043151 255.31994786 -165.04572518 196.52240835 -149.6875 145.265625 C-133.32240398 93.19837376 -99.82590188 49.29173904 -53 21 C-52.42056641 20.63986816 -51.84113281 20.27973633 -51.24414062 19.90869141 C-38.89622268 12.27035285 -25.58377997 7.03416911 -12 2 C-10.68878174 1.51031738 -10.68878174 1.51031738 -9.35107422 1.01074219 C-8.55330566 0.72618164 -7.75553711 0.44162109 -6.93359375 0.1484375 C-6.24193115 -0.09986816 -5.55026855 -0.34817383 -4.83764648 -0.60400391 C-3 -1 -3 -1 0 0 Z " fill="#AFB7CF" transform="translate(198,49)"/>
<path d="M0 0 C0.76957031 0.64710937 1.53914062 1.29421875 2.33203125 1.9609375 C6.29440986 5.30963988 9.7604232 8.83656248 13.10546875 12.80078125 C14.443499 14.35399987 15.82609797 15.86934917 17.23828125 17.35546875 C44.80659705 46.41871714 63.21673489 86.5634351 69 126 C69.17515137 127.14839355 69.35030273 128.29678711 69.53076172 129.47998047 C70.88522147 139.13635475 71.31265669 148.61000676 71.26074219 158.35595703 C71.24994482 160.76229664 71.26075469 163.16790036 71.2734375 165.57421875 C71.30671595 187.94766693 71.30671595 187.94766693 67.57324219 192.88793945 C65.80228181 194.47865386 64.01653537 195.73815299 62 197 C61.09507812 197.63010986 61.09507812 197.63010986 60.171875 198.27294922 C58.31112825 199.54972764 56.4199629 200.75182359 54.5 201.9375 C53.8085791 202.36498535 53.1171582 202.7924707 52.40478516 203.23291016 C33.99215191 214.40109139 14.89670657 221.09574556 -6.81640625 217.33984375 C-14.23902704 215.31549263 -20.11385105 211.90343561 -26 207 C-26.69738281 206.43796875 -27.39476562 205.8759375 -28.11328125 205.296875 C-40.71230816 194.04337523 -46.16375234 175.55688376 -47.1730957 159.19384766 C-48.05931548 137.81918472 -45.85557292 117.09044544 -43.21801758 95.90258789 C-41.28079829 80.23545488 -39.96905606 64.79909256 -40 49 C-38.97592041 48.81171631 -38.97592041 48.81171631 -37.93115234 48.61962891 C-37.03348145 48.44866699 -36.13581055 48.27770508 -35.2109375 48.1015625 C-34.32196777 47.93479004 -33.43299805 47.76801758 -32.51708984 47.59619141 C-28.26541887 46.58915159 -25.42998777 44.85004667 -22.75 41.3828125 C-19.29203146 35.59551793 -19.14886537 29.56969545 -20 23 C-21.81518877 16.31783633 -26.46157458 11.92352519 -32 8 C-35.03521394 6.98826202 -37.19733079 6.83426486 -40.375 6.8125 C-41.31085938 6.79832031 -42.24671875 6.78414062 -43.2109375 6.76953125 C-46.16118154 7.01331892 -48.32364112 7.76887492 -51 9 C-51.59425781 8.0821875 -52.18851563 7.164375 -52.80078125 6.21875 C-60.29640282 -5.01549654 -68.70684375 -13.08568868 -82 -17 C-82.59256592 -17.17805176 -83.18513184 -17.35610352 -83.7956543 -17.53955078 C-91.00006042 -19.4418425 -98.15823631 -19.22347103 -105.5625 -19.125 C-107.50479492 -19.11146484 -107.50479492 -19.11146484 -109.48632812 -19.09765625 C-112.65774771 -19.07425094 -115.82877373 -19.04146228 -119 -19 C-119.18175781 -19.61488281 -119.36351562 -20.22976562 -119.55078125 -20.86328125 C-119.80214844 -21.67152344 -120.05351562 -22.47976562 -120.3125 -23.3125 C-120.55613281 -24.11300781 -120.79976563 -24.91351563 -121.05078125 -25.73828125 C-122.58360537 -29.39056589 -124.73288361 -30.82192241 -128 -33 C-131.61930698 -34.20643566 -134.19231005 -34.32268559 -138 -34 C-141.70390021 -31.97333762 -143.65363011 -30.51955484 -146 -27 C-146.24107326 -24.71351152 -146.24107326 -24.71351152 -146.125 -22.3125 C-146.10695312 -21.50425781 -146.08890625 -20.69601563 -146.0703125 -19.86328125 C-146.04710937 -19.24839844 -146.02390625 -18.63351563 -146 -18 C-164.01845871 -18.40449601 -180.44645458 -27.35927718 -193 -40 C-199 -46.34913793 -199 -46.34913793 -199 -49 C-194.87647343 -49.82009651 -190.75094556 -50.62966923 -186.625 -51.4375 C-185.46871094 -51.66759766 -184.31242188 -51.89769531 -183.12109375 -52.13476562 C-117.32637091 -64.95916076 -49.82039457 -43.77524209 0 0 Z " fill="#DADEEA" transform="translate(401,95)"/>
<path d="M0 0 C0.99 0.33 1.98 0.66 3 1 C2.00033203 2.40185547 2.00033203 2.40185547 0.98046875 3.83203125 C-32.30950411 51.02129996 -48.3914484 107.86307599 -39.03515625 165.46484375 C-35.75594101 183.61938691 -30.75778607 200.84224446 -24 218 C-22.73929688 217.97292969 -21.47859375 217.94585937 -20.1796875 217.91796875 C-16.29385053 217.83453053 -14.11288479 218.52800325 -11 221 C-8.33804042 224.99293937 -8.27080668 228.30263837 -9 233 C-11 235.5625 -11 235.5625 -13 237 C-12.34 238.98 -11.68 240.96 -11 243 C-10.34 243 -9.68 243 -9 243 C-8.67 242.67 -8.34 242.34 -8 242 C-2.98078876 241.61390683 -0.06348204 241.98141334 4 245 C6 247 6 247 6.125 249.625 C6.08375 250.40875 6.0425 251.1925 6 252 C2.33333333 252 -1.33333333 252 -5 252 C12.39676925 278.65706503 35.72216611 300.63329967 63 317 C62.0409375 318.175625 62.0409375 318.175625 61.0625 319.375 C58.42145896 322.73632496 57.81163906 324.08007105 58.1875 328.25 C58.853265 333.37063694 60.42579665 336.94957996 64.57421875 340.25390625 C69.48194367 343.41911311 73.56879885 343.37094066 79.3125 342.75 C81.70832358 341.68518952 82.00756779 340.39180315 83 338 C83.44811137 335.64435404 83.44811137 335.64435404 83.625 333.25 C83.75 331.83333333 83.875 330.41666667 84 329 C88.96891985 330.63547257 93.91201055 332.31948472 98.8359375 334.0859375 C123.23525806 342.70208197 147.29091974 347.21973544 173.125 347.0625 C174.57291511 347.05747252 176.02083192 347.05291183 177.46875 347.04882812 C180.97920259 347.03792705 184.48959007 347.02073202 188 347 C187.17000488 346.73952881 186.34000977 346.47905762 185.48486328 346.21069336 C184.39931152 345.86143799 183.31375977 345.51218262 182.1953125 345.15234375 C180.57906982 344.63788696 180.57906982 344.63788696 178.93017578 344.11303711 C175.29217262 342.73112939 173.29530824 341.13692126 171 338 C170.30493774 336.34497412 169.63366455 334.67949143 169 333 C169.68707031 333.34933594 170.37414062 333.69867188 171.08203125 334.05859375 C171.98308594 334.51363281 172.88414062 334.96867187 173.8125 335.4375 C175.15248047 336.11619141 175.15248047 336.11619141 176.51953125 336.80859375 C187.4754684 342.07089427 203.51274767 340.09453221 214.70361328 336.1940918 C223.34121038 332.89890825 229.83890878 328.97438056 235.52734375 321.63671875 C237 320 237 320 240 319 C239.15396265 326.45894153 236.59283429 331.00562074 231 336 C227.49188389 338.5893238 224.1419608 340.6193464 220 342 C248.77842959 336.97301127 278.53378306 323.87006779 301.16333008 305.32470703 C303 304 303 304 305 304 C304.42102714 307.64483966 303.03425804 309.3509613 300.45703125 311.94140625 C299.7196875 312.68479248 298.98234375 313.42817871 298.22265625 314.1940918 C297.42730469 314.9756665 296.63195312 315.75724121 295.8125 316.5625 C295.00039063 317.3666333 294.18828125 318.1707666 293.3515625 318.99926758 C286.61828239 325.57597514 279.60611587 331.47090186 272 337 C271.15566406 337.62777344 270.31132812 338.25554687 269.44140625 338.90234375 C232.63739696 365.55352289 187.93289881 379.50214343 142.625 379.375 C141.85030365 379.37412384 141.0756073 379.37324768 140.2774353 379.37234497 C109.83777245 379.25992388 80.59610274 372.93293047 53 360 C51.95924316 359.51877686 51.95924316 359.51877686 50.89746094 359.02783203 C35.40809925 351.8041103 21.24469369 342.78085161 8 332 C7.47341797 331.57638184 6.94683594 331.15276367 6.40429688 330.71630859 C-7.39110698 319.57354466 -19.44400363 307.24597761 -30 293 C-30.85023745 291.88019089 -31.7004977 290.7603991 -32.55078125 289.640625 C-39.3059982 280.60620883 -44.79652503 270.99505382 -50 261 C-50.35304199 260.33194336 -50.70608398 259.66388672 -51.06982422 258.97558594 C-75.97043151 211.31994786 -80.04572518 152.52240835 -64.6875 101.265625 C-52.06842472 61.11672746 -29.93975136 29.20551864 0 0 Z " fill="#9EA9C9" transform="translate(113,93)"/>
<path d="M0 0 C-0.04543945 1.13876587 -0.04543945 1.13876587 -0.09179688 2.30053711 C-0.38364181 9.71844967 -0.64981226 17.13682699 -0.88867188 24.55664062 C-0.95371753 26.56849147 -1.02142654 28.58026568 -1.09570312 30.59179688 C-3.0457337 86.24266936 20.20271815 144.11094215 57.375 185.0625 C58.17679687 185.91714844 58.97859375 186.77179688 59.8046875 187.65234375 C61.77527892 189.75968439 63.64295281 191.91813694 65.5 194.125 C90.24162018 222.41750085 127.51187448 242.53814467 163.00683594 253.38427734 C164.78642699 253.93402363 166.55436542 254.52116958 168.3203125 255.11328125 C188.18234353 261.43301839 209.94906324 263.20518175 230.6875 263.125 C231.90469727 263.12306641 233.12189453 263.12113281 234.37597656 263.11914062 C243.61294166 263.0750501 252.79334542 262.73653237 262 262 C259.4911706 264.5088294 257.93296788 264.59652967 254.46875 265.25390625 C253.34726562 265.46853516 252.22578125 265.68316406 251.0703125 265.90429688 C249.89210938 266.12150391 248.71390625 266.33871094 247.5 266.5625 C246.35273438 266.78357422 245.20546875 267.00464844 244.0234375 267.23242188 C201.4062417 275.26561767 156.1982112 269.37026572 117 251 C116.30616211 250.67918457 115.61232422 250.35836914 114.89746094 250.02783203 C99.40809925 242.8041103 85.24469369 233.78085161 72 223 C71.21012695 222.36457275 71.21012695 222.36457275 70.40429688 221.71630859 C56.60889302 210.57354466 44.55599637 198.24597761 34 184 C33.14976255 182.88019089 32.2995023 181.7603991 31.44921875 180.640625 C24.6940018 171.60620883 19.20347497 161.99505382 14 152 C13.64695801 151.33194336 13.29391602 150.66388672 12.93017578 149.97558594 C-2.39172479 120.65200601 -9.19999371 87.94697209 -9.3125 55.0625 C-9.31578308 54.27597046 -9.31906616 53.48944092 -9.32244873 52.67907715 C-9.34573685 35.32547153 -7.98262547 17.71337363 -3 1 C-1 0 -1 0 0 0 Z " fill="#8B98B7" transform="translate(49,202)"/>
<path d="M0 0 C7.69713086 4.52457432 13.06364237 10.63394872 15.859375 19.19921875 C17.56512393 28.55499321 16.61203078 36.95974611 11.55859375 45.0078125 C5.33234686 51.23405939 -0.69292015 53.4449404 -9.37890625 53.6953125 C-16.34936328 53.65179248 -20.97382777 52.11107143 -26.75390625 48.3203125 C-27.66140625 47.7634375 -28.56890625 47.2065625 -29.50390625 46.6328125 C-35.08794675 40.89365977 -40.05670005 32.67765289 -40.00390625 24.5078125 C-39.76789463 15.65737691 -37.72451579 9.97074392 -31.75390625 3.3203125 C-23.0735402 -4.72490481 -10.48269064 -4.92290562 0 0 Z " fill="#B0B8CF" transform="translate(220.75390625,114.6796875)"/>
<path d="M0 0 C7.57005123 5.67479962 13.45089207 11.39832202 15 21 C15.66459781 28.3295644 15.8191316 34.87365198 11.6640625 41.1875 C7.23371473 46.01304311 1.6683751 47.22987699 -4.6875 47.6875 C-14.22436396 47.32210291 -23.08940776 42.51464282 -29.625 35.6875 C-36.31415556 27.17533424 -38.20340304 18.74467002 -37 8 C-35.05602682 2.63093121 -32.69483599 -0.15258201 -27.625 -2.6875 C-18.48796373 -5.84515224 -8.26150124 -4.99160172 0 0 Z " fill="#C8CDE1" transform="translate(173,333)"/>
<path d="M0 0 C7.35306848 4.38952149 12.81306691 11.18062691 15.31640625 19.3828125 C16.23636133 26.14814585 16.23479268 32.68841363 12.64453125 38.66796875 C7.86328166 44.84140572 3.03091143 47.47644998 -4.703125 48.703125 C-11.93071017 49.3021681 -17.74520213 46.26178976 -23.68359375 42.3828125 C-29.79890188 37.15521039 -34.03317722 30.45874355 -35.0625 22.42578125 C-35.38659046 14.11442925 -33.6254787 8.86662362 -28.30859375 2.5703125 C-19.92824811 -4.41330887 -9.78333229 -4.49122478 0 0 Z " fill="#B0B8CF" transform="translate(348.68359375,293.6171875)"/>
<path d="M0 0 C2.73712215 1.89493072 5.11929046 3.54615298 6.5625 6.625 C5.85541835 13.24981119 1.45148308 17.2913852 -3.55078125 21.33203125 C-14.43625612 28.96926495 -26.2323684 31.98200872 -39.375 32 C-40.31279297 32.02449219 -41.25058594 32.04898438 -42.21679688 32.07421875 C-48.84672589 32.10186265 -53.61779256 30.75379149 -59.4375 27.625 C-60.283125 27.2125 -61.12875 26.8 -62 26.375 C-63.92399179 24.03274912 -64.29695519 21.94169551 -64.13671875 18.94140625 C-61.82508132 11.28330012 -53.91839373 5.59091769 -47.1953125 1.87109375 C-42.11180086 -0.42584706 -36.82146943 -1.95240645 -31.4375 -3.375 C-30.7775 -3.5709375 -30.1175 -3.766875 -29.4375 -3.96875 C-19.92693251 -5.90058402 -8.42502132 -4.97842169 0 0 Z " fill="#C8CDE1" transform="translate(345.4375,401.375)"/>
<path d="M0 0 C4.67683877 3.22041509 8.22780998 6.47493701 10 12 C10.72162935 17.95344214 10.78966375 23.35490241 7.33203125 28.4375 C2.48833623 34.11925369 -2.16105548 37.49392127 -9.7265625 38.28515625 C-17.05627919 38.64700302 -22.17820685 37.55722333 -28 33 C-32.94313334 28.37187026 -35.06954355 23.82654864 -35.3125 17.125 C-35.16836904 11.72809614 -34.22221332 7.4926414 -30.5234375 3.34375 C-21.35393901 -5.19770064 -10.7543511 -6.25567281 0 0 Z " fill="#B0B8CF" transform="translate(407,216)"/>
<path d="M0 0 C5.64472901 2.8287069 10.4020469 8.14592623 13.1640625 13.76171875 C15.10619574 19.91027326 15.02851003 26.98494218 12.30078125 32.87109375 C9.88265369 36.97509898 6.84746112 39.25558583 2.80078125 41.68359375 C-3.24852866 43.16231395 -9.03376821 42.29284202 -14.38671875 39.12109375 C-19.65007981 35.41450146 -23.41442549 30.69131886 -25.01171875 24.37109375 C-25.74906787 17.92150987 -25.80268076 11.75718541 -22.390625 6.0625 C-16.69266623 -0.92678088 -8.53624014 -2.668611 0 0 Z " fill="#B0B8CF" transform="translate(368.01171875,101.62890625)"/>
<path d="M0 0 C4.84418169 2.98752669 7.96086687 6.57004731 10.1875 11.8125 C10.85812244 16.90455177 10.97870451 22.08299792 8.625 26.75 C4.98280211 31.32609479 2.0515085 33.39491417 -3.65234375 34.2265625 C-10.69177349 34.563887 -15.4883013 33.50653991 -20.8125 28.8125 C-25.52445036 23.85255225 -27.42457409 19.03052035 -27.25390625 12.2265625 C-26.41120089 7.61778453 -23.97310172 4.18986865 -20.8125 0.8125 C-14.00807391 -3.42421813 -7.04872683 -3.66904172 0 0 Z " fill="#B0B8CF" transform="translate(253.8125,211.1875)"/>
<path d="M0 0 C7.49280534 3.33514343 11.57683136 7.79452639 14.91015625 15.21875 C16.39369686 22.19139089 15.37867623 26.72652561 12.015625 32.90625 C9.89824917 36.12421432 8.10485229 37.68637516 4.53515625 39.15625 C-1.4022165 39.15625 -4.80808348 38.00313892 -9.46484375 34.15625 C-15.05082667 28.53017629 -17.74344615 23.89792804 -17.83984375 15.78125 C-17.73007166 8.8499266 -16.41114947 5.30574922 -11.65234375 0.21875 C-7.59301115 -1.75292583 -4.22588253 -1.44657786 0 0 Z " fill="#C8CDE1" transform="translate(108.46484375,221.84375)"/>
<path d="M0 0 C2.25 0.0625 2.25 0.0625 5 1 C12.57161914 12.41478946 12.2972501 26.42618805 12.4375 39.6875 C12.45973633 40.90526123 12.48197266 42.12302246 12.50488281 43.37768555 C12.48871825 49.83138885 12.43768879 54.12293609 8 59 C5.21971853 59 3.51719107 58.48279985 1.47265625 56.57421875 C-7.48848837 45.56090361 -9.07213901 30.71750464 -8 17 C-6.58256908 10.61054456 -4.72474696 4.72474696 0 0 Z " fill="#FDFDFD" transform="translate(158,156)"/>
<path d="M0 0 C5.13308791 2.61320839 8.1797908 5.53937241 10 11 C10.54030113 16.72719196 9.6516353 19.55882194 6 24 C3.69471818 26.57649145 2.10487675 27.81862995 -1.33203125 28.3828125 C-7.03815174 28.6394596 -10.63234734 27.95168574 -15 24 C-18.39250107 20.07184087 -19.6688534 17.05100622 -19.38671875 11.953125 C-18.52436558 7.59780593 -15.74316034 4.83059097 -12.875 1.625 C-8.61604292 -0.78223661 -4.78102419 -0.76618977 0 0 Z " fill="#B0B8CF" transform="translate(339,234)"/>
<path d="M0 0 C2.3481015 1.66693055 2.93001317 2.65332104 3.50390625 5.49609375 C3.68154318 14.41346751 1.43589544 22.00961763 -4.59375 28.79296875 C-7.92854689 31.69390176 -11.17292198 33.77718561 -15.5625 34.3125 C-18 34 -18 34 -19.6171875 32.8203125 C-22.06277937 29.60097405 -21.5807501 26.24687869 -21.4765625 22.33984375 C-20.41610988 14.90798319 -16.89631823 8.27226381 -11.25 3.3125 C-7.05806502 0.32977704 -5.15008961 -0.42041548 0 0 Z " fill="#C8CDE1" transform="translate(119,140)"/>
<path d="M0 0 C3.89685958 3.24738298 6.32104022 6.06606683 6.828125 11.2734375 C6.92546815 16.02702797 6.91005131 19.43315565 3.625 23.1875 C1.875 24 1.875 24 -0.375 24.1875 C-1.4475 24.31125 -2.52 24.435 -3.625 24.5625 C-9.81484718 23.94351528 -13.74343307 21.02824218 -17.8125 16.4375 C-19.78580802 12.33301932 -20.58512719 8.74305751 -20.375 4.1875 C-19.1320627 0.94205262 -18.14443889 -0.31462778 -15.25 -2.1875 C-9.67819202 -3.3987626 -5.0091922 -2.69012174 0 0 Z " fill="#C8CDE1" transform="translate(190.375,412.8125)"/>
<path d="M0 0 C3.93792318 2.56821077 6.74612583 5.61725165 8.875 9.875 C9.31908691 13.7829648 9.01204844 15.62048146 7.125 19.125 C4.57531338 22.24128364 2.75348931 23.53955548 -1.203125 24.24609375 C-7.39476047 24.43540635 -11.40328969 22.89842921 -16.125 18.875 C-18.59468014 15.94225483 -19.07210701 14.23863928 -19.625 10.4375 C-18.95361386 5.65387378 -17.55934812 4.23129476 -14.125 0.875 C-9.80578366 -2.29242532 -4.84919365 -1.74570971 0 0 Z " fill="#B0B8CF" transform="translate(273.125,61.125)"/>
<path d="M0 0 C8.13194308 1.86634759 14.87385933 6.39633015 19.5703125 13.3125 C24.29512267 21.52017024 25.50284244 30.06040403 23.46875 39.453125 C21.02190254 46.42132102 17.18570055 50.20422921 11 54 C10.34 53.67 9.68 53.34 9 53 C9.61875 52.278125 10.2375 51.55625 10.875 50.8125 C15.96242059 44.07914922 15.70504863 37.16606954 15 29 C12.95113553 20.0316172 7.57166758 13.13172941 -0.0625 8.125 C-5.88873707 4.79252659 -11.39991325 3.68276759 -18 3 C-12.91364597 -1.72304303 -6.50988288 -0.61998885 0 0 Z " fill="#9EA9C9" transform="translate(213,112)"/>
<path d="M0 0 C1.1096576 3.32897281 0.966459 5.57137558 0.8125 9.0625 C0.77213796 18.14395895 3.36335139 25.49423842 9.71875 32.10546875 C20.22626053 40.83174034 29.84094227 42.00365695 43 41 C35.58894384 47.35233385 28.5433512 47.97762342 19.02294922 47.27685547 C10.49937123 46.11034118 3.78275296 40.81873708 -1.44140625 34.26953125 C-6.60873956 26.74516871 -6.97463661 19.01276861 -6 10 C-4.73547655 6.03426448 -2.97059049 2.97059049 0 0 Z " fill="#9EA9C9" transform="translate(136,338)"/>
<path d="M0 0 C3.66688987 1.3334145 6.37553045 3.27480955 8.9375 6.25 C10.78674285 11.03627561 10.79886742 15.16260494 8.75 19.875 C6.45109433 22.66652832 4.41074733 23.80567523 0.81640625 24.30078125 C-3.93987874 24.32551063 -7.23707634 24.22536313 -11 21 C-14.35081447 17.10581021 -15.70761529 14.02420264 -15.46484375 8.96484375 C-14.6206449 5.39650743 -12.59515968 3.53337016 -10 1 C-6.77467536 -0.61266232 -3.49710112 -0.4544969 0 0 Z " fill="#B0B8CF" transform="translate(306,136)"/>
<path d="M0 0 C7.35306848 4.38952149 12.81306691 11.18062691 15.31640625 19.3828125 C16.35229412 27.00071353 16.09155873 34.09122646 11.31640625 40.3828125 C9.06640625 42.3828125 9.06640625 42.3828125 7.31640625 43.3828125 C7.47496094 42.68671875 7.63351562 41.990625 7.796875 41.2734375 C9.60345614 31.22178302 8.68413893 22.94104942 3.03125 14.453125 C-1.29057515 8.84317926 -7.63045631 4.60108169 -14.68359375 3.3828125 C-16.93266527 3.31490575 -19.1836098 3.29781266 -21.43359375 3.3203125 C-23.18929688 3.33384766 -23.18929688 3.33384766 -24.98046875 3.34765625 C-25.8725 3.35925781 -26.76453125 3.37085938 -27.68359375 3.3828125 C-20.092691 -4.75029759 -9.84903592 -4.52138727 0 0 Z " fill="#9FAAC9" transform="translate(348.68359375,293.6171875)"/>
<path d="M0 0 C1.9375 1.5 1.9375 1.5 3 4 C3.73713931 10.31833696 2.65008522 14.77178971 -1 20 C-3.09490364 22.48380901 -5.12053978 24.46428788 -8 26 C-11.8125 26.0625 -11.8125 26.0625 -15 25 C-17.85055503 20.72416745 -17.48658817 17.0149974 -17 12 C-14.4954348 4.33897705 -8.37003874 -1.60962284 0 0 Z " fill="#B0B8CF" transform="translate(270,276)"/>
<path d="M0 0 C3.80632113 0 5.07475947 1.06988386 7.875 3.6875 C13.91599885 11.33313917 19.02945483 20.36079788 18.24609375 30.3046875 C18.16488281 30.86414063 18.08367187 31.42359375 18 32 C16.23828125 32.66015625 16.23828125 32.66015625 14 33 C6.04397307 29.0465928 1.84320941 19.983524 -1 12 C-1.53213404 8.2351517 -1.64145603 4.75397561 -1 1 C-0.67 0.67 -0.34 0.34 0 0 Z " fill="#FDFDFE" transform="translate(167,222)"/>
<path d="M0 0 C4.67683877 3.22041509 8.22780998 6.47493701 10 12 C10.32486473 15.69402638 10.46356539 19.31555823 10 23 C9.34 23.66 8.68 24.32 8 25 C7.76925781 24.26394531 7.53851563 23.52789062 7.30078125 22.76953125 C4.59150262 14.66311259 1.84071365 10.44052837 -5.6875 6.1875 C-13.44196824 2.5403688 -20.19222497 3.31045471 -28.08984375 6.1484375 C-30.2588326 7.0513357 -30.2588326 7.0513357 -33 9 C-31.64699536 4.26448376 -29.05602846 1.61129266 -25 -1 C-16.16355083 -5.58253872 -8.46357922 -4.92315919 0 0 Z " fill="#A0AACA" transform="translate(407,216)"/>
<path d="M0 0 C3.4027947 1.22500609 5.93103826 2.2971159 8.1875 5.1875 C8.0625 7.3125 8.0625 7.3125 7.1875 9.1875 C-1.37943503 12.04314501 -11.29728313 10.64500331 -19.54296875 7.453125 C-22.09994938 6.02720121 -23.84502433 4.34041591 -25.8125 2.1875 C-25.4825 1.1975 -25.1525 0.2075 -24.8125 -0.8125 C-18.13160941 -4.15294529 -6.77045179 -2.17118527 0 0 Z " fill="#8A97B7" transform="translate(264.8125,412.8125)"/>
<path d="M0 0 C3.49406769 1.66762322 4.82670681 2.74006022 7 6 C7.48219153 9.04453491 7.46284898 11.95291087 7 15 C5.12379387 17.50160818 3.76108697 18.61945652 1 20 C-2.87214182 20.43023798 -4.52496371 20.31669086 -7.8125 18.125 C-10.72749627 15.29328934 -11.20202475 13.64597205 -11.375 9.6875 C-11.32748065 6.0047507 -11.07687286 5.11078735 -8.875 1.9375 C-5.47509707 -0.35373893 -4.01740025 -0.66956671 0 0 Z " fill="#8A97B7" transform="translate(97,311)"/>
<path d="M0 0 C6.35378341 -0.10248038 9.52595434 0.92487074 14.375 5.125 C19.99438103 10.68330081 22.09107711 15.03905801 22.4375 22.9375 C22.28637645 28.42603249 21.31448739 32.57713097 18 37 C13.52930511 41.15135954 11.04105608 42.13132731 5 42 C5.7425 41.484375 6.485 40.96875 7.25 40.4375 C11.64948863 36.53795326 13.66296161 33.56835734 14.421875 27.78515625 C14.73488006 19.77744338 13.72983766 13.57783434 9 7 C6.5841005 4.54801956 6.5841005 4.54801956 4 3 C3.236875 2.4225 2.47375 1.845 1.6875 1.25 C1.130625 0.8375 0.57375 0.425 0 0 Z " fill="#9FAAC9" transform="translate(360,101)"/>
<path d="M0 0 C0.66 0.33 1.32 0.66 2 1 C1.01 2.3303125 1.01 2.3303125 0 3.6875 C-3.37198892 9.61256624 -3.10907 16.95747267 -1.33984375 23.40625 C1.33835854 29.43510363 6.02139421 33.60575899 11.9375 36.375 C12.618125 36.58125 13.29875 36.7875 14 37 C14 37.66 14 38.32 14 39 C7.20512686 38.8269824 2.22907548 37.46578995 -3 33 C-8.32423895 26.97555097 -9.35695847 21.85145156 -9.28125 14.015625 C-8.75705434 8.39508269 -6.48332507 5.3147654 -2.25 1.5625 C-1.5075 1.046875 -0.765 0.53125 0 0 Z " fill="#9FAAC9" transform="translate(94,223)"/>
<path d="M0 0 C5.11771617 -0.63971452 7.98785553 0.7180572 12.1015625 3.5078125 C15.75286166 6.37776369 18.4087354 9.26562383 19.9375 13.75 C19.958125 14.4925 19.97875 15.235 20 16 C18 18 18 18 14.4375 18.125 C8.66016932 17.26949034 4.76976996 13.21557263 1 9 C-0.67557052 6.26698101 -1.06610266 5.48475288 -0.625 2.25 C-0.41875 1.5075 -0.2125 0.765 0 0 Z " fill="#C9CEE2" transform="translate(424,159)"/>
<path d="M0 0 C4.4297642 0.79102932 5.89210172 1.98974785 8.5 5.625 C9.20960213 9.40954468 8.77801176 11.09214413 7 14.5 C4.14043025 16.93063428 2.21889787 17.36145855 -1.52734375 17.109375 C-5.01060972 16.25407801 -6.50028288 14.49959336 -8.5 11.625 C-9.125 8.625 -9.125 8.625 -8.5 5.625 C-5.89210172 1.98974785 -4.4297642 0.79102932 0 0 Z " fill="#B0B8CF" transform="translate(237.5,96.375)"/>
<path d="M0 0 C4.83729499 2.98327949 7.97735049 6.56807744 10.1875 11.8125 C10.75719967 16.77702571 10.83843852 21.33309428 8.8125 25.9375 C7.1875 27.8125 7.1875 27.8125 5.1875 28.8125 C5.25710938 27.760625 5.25710938 27.760625 5.328125 26.6875 C5.57572828 20.17907098 5.32048755 15.05601329 1.1875 9.8125 C-3.87672145 5.14567219 -8.00758946 2.65918947 -15 2.75 C-15.90105469 2.75902344 -16.80210937 2.76804688 -17.73046875 2.77734375 C-18.76107422 2.79474609 -18.76107422 2.79474609 -19.8125 2.8125 C-18.8125 -0.1875 -18.8125 -0.1875 -16.8125 -1.375 C-10.6539914 -3.04292941 -5.72732753 -3.00047801 0 0 Z " fill="#9FAAC9" transform="translate(253.8125,211.1875)"/>
<path d="M0 0 C-0.65070405 5.27793284 -2.69930686 7.02259109 -6.67578125 10.28515625 C-11.88616158 14.12945367 -16.3468271 17.38450912 -23 17 C-23 12.80243859 -22.46938866 11.64760733 -19.76953125 8.58984375 C-14.03941776 3.44159609 -7.66341058 -0.16659588 0 0 Z " fill="#B1B9D0" transform="translate(469,257)"/>
<path d="M0 0 C3 0.5 3 0.5 4.875 2.0625 C6.42760304 5.42647326 6.38630676 7.83008575 6 11.5 C4.84360194 13.81279611 3.82590172 15.67409828 2 17.5 C-1.5 17.1875 -1.5 17.1875 -5 16.5 C-6.21977329 14.06045342 -6.20153813 12.34694151 -6.25 9.625 C-6.27578125 8.76132812 -6.3015625 7.89765625 -6.328125 7.0078125 C-5.7659819 2.7114331 -4.28653647 0.71442274 0 0 Z " fill="#8A97B7" transform="translate(167,253.5)"/>
<path d="M0 0 C3 1.125 3 1.125 4.9375 4.1875 C6.43308762 8.41187907 5.8970922 11.78905436 5 16.125 C4 17.125 4 17.125 1.1875 17.5625 C-2 17.125 -2 17.125 -4.375 14.625 C-6.41939155 10.22169513 -6.55125795 7.92881932 -6 3.125 C-4.34677015 0.09407861 -3.44791866 0.14366328 0 0 Z " fill="#8B97B7" transform="translate(154,103.875)"/>
<path d="M0 0 C2.5625 1.625 2.5625 1.625 4 4 C3.9375 7.125 3.9375 7.125 3 10 C0.00261059 11.99825961 -0.63347508 12.27550398 -4 12.25 C-4.680625 12.25515625 -5.36125 12.2603125 -6.0625 12.265625 C-8 12 -8 12 -11 10 C-11.9375 7.125 -11.9375 7.125 -12 4 C-9.14591279 -0.71544844 -5.05467271 -1.01300189 0 0 Z " fill="#B0B8CF" transform="translate(245,265)"/>
<path d="M0 0 C1.9375 1.0625 1.9375 1.0625 3 3 C3.4375 6.5 3.4375 6.5 3 10 C1.4375 12 1.4375 12 -1 13 C-4.625 12.875 -4.625 12.875 -8 12 C-10.31282587 8.53076119 -10.42478586 7.07794425 -10 3 C-7.72054654 -1.02256493 -4.21158603 -0.45124136 0 0 Z " fill="#B0B8CF" transform="translate(319,226)"/>
<path d="M0 0 C4.06612417 0.33884368 6.39715846 0.99744275 9.75 3.3125 C10.75 5.875 10.75 5.875 10.75 8.3125 C8.75 10.3125 8.75 10.3125 4.9375 10.625 C1.13029542 10.51424496 -1.31268802 9.89377417 -4.25 7.3125 C-5.1875 4.75 -5.1875 4.75 -5.25 2.3125 C-3.25 0.3125 -3.25 0.3125 0 0 Z " fill="#8B98B8" transform="translate(264.25,395.6875)"/>
<path d="M0 0 C0.33 0.66 0.66 1.32 1 2 C-0.19625 2.226875 -1.3925 2.45375 -2.625 2.6875 C-8.39779798 4.20184313 -11.58688044 6.65043518 -14.6328125 11.71484375 C-17.58337946 17.36653361 -19.79617938 22.7401328 -21 29 C-21.33 29 -21.66 29 -22 29 C-22.63129065 19.77614217 -21.12930013 12.96371745 -16.1875 5.125 C-11.11451618 0.19695858 -7.1896706 -2.01310777 0 0 Z " fill="#9EA9C9" transform="translate(118,138)"/>
<path d="M0 0 C5.67549553 2.04317839 9.29873721 5.59747441 12 11 C12.41059292 15.61917038 11.83584686 18.29158487 9 22 C8.34 22 7.68 22 7 22 C7.06960938 21.12988281 7.06960938 21.12988281 7.140625 20.2421875 C7.40129681 14.60050472 6.88357735 11.40838511 3 7 C-1.09271523 3.70309051 -4.91096969 3.43127376 -10 3 C-7.28313497 -0.83557416 -4.41969099 -0.4494601 0 0 Z " fill="#A2ACCB" transform="translate(270,60)"/>
<path d="M0 0 C5.02475668 -0.29557392 7.92352591 -0.0282379 12 3 C14 5 14 5 14.125 7.625 C14.08375 8.40875 14.0425 9.1925 14 10 C6.33183857 10.76681614 6.33183857 10.76681614 3.06640625 8.88671875 C1.4375 7.5 1.4375 7.5 -1 5 C-0.67 3.35 -0.34 1.7 0 0 Z " fill="#8A97B7" transform="translate(105,335)"/>
<path d="M0 0 C4.65022599 0.76792723 7.98517483 3.02335827 11.06640625 6.6015625 C12.56999731 10.49320995 12.53267044 13.17933254 12.12890625 17.3515625 C10.60546875 19.09375 10.60546875 19.09375 9.12890625 20.3515625 C9.04253906 19.68769531 8.95617187 19.02382812 8.8671875 18.33984375 C7.93676062 12.49266564 7.01413245 9.1376128 2.12890625 5.3515625 C-0.16739369 4.20341253 -1.94807461 4.04386441 -4.49609375 3.7890625 C-5.31335938 3.70527344 -6.130625 3.62148437 -6.97265625 3.53515625 C-7.59914063 3.47457031 -8.225625 3.41398438 -8.87109375 3.3515625 C-6.16739516 0.20559223 -4.19173805 -0.16983101 0 0 Z " fill="#A0ABCA" transform="translate(303.87109375,135.6484375)"/>
<path d="M0 0 C2 0.1875 2 0.1875 4 1 C6.46751239 4.70126859 6.30721156 6.62223532 6 11 C5 13.4375 5 13.4375 4 15 C1.5625 14.625 1.5625 14.625 -1 14 C-2.23887548 11.52224905 -2.16741669 9.76346293 -2.1875 7 C-2.20167969 6.113125 -2.21585938 5.22625 -2.23046875 4.3125 C-2 2 -2 2 0 0 Z " fill="#8C99B8" transform="translate(169,285)"/>
<path d="M0 0 C3.875 1.75 3.875 1.75 5 4 C5.35555556 11.46666667 5.35555556 11.46666667 3 15 C1.68 15 0.36 15 -1 15 C-3.62404613 11.06393081 -3.36302306 7.57409061 -3 3 C-1.5 1 -1.5 1 0 0 Z " fill="#8B98B8" transform="translate(150,250)"/>
<path d="M0 0 C2 2 2 2 2.25 4.5 C2 7 2 7 0 9 C-3.33058011 9.52588107 -4.60020349 9.28406594 -7.375 7.3125 C-9 5 -9 5 -8.875 2.3125 C-7.15516479 -2.23277877 -4.10029938 -0.93965194 0 0 Z " fill="#8B98B8" transform="translate(230,446)"/>
<path d="M0 0 C1.875 0.8125 1.875 0.8125 3.875 2.8125 C3.64419237 5.1975122 2.99842911 6.6241082 1.6875 8.625 C-0.125 9.8125 -0.125 9.8125 -3.3125 9.5 C-4.240625 9.273125 -5.16875 9.04625 -6.125 8.8125 C-6.375 6 -6.375 6 -6.125 2.8125 C-4.07702207 0.54509586 -3.08300551 -0.2720299 0 0 Z " fill="#9EA9C8" transform="translate(137.125,108.1875)"/>
<path d="M0 0 C1 1 1 1 1.1875 3.4375 C1 6 1 6 -1 8 C-4.125 8.125 -4.125 8.125 -7 8 C-7.6875 5.6875 -7.6875 5.6875 -8 3 C-5.92409036 -0.34452109 -3.73927021 -0.39360739 0 0 Z " fill="#B0B8CF" transform="translate(205,193)"/>
<path d="M0 0 C3.25696479 0.41755959 4.63443291 0.63443291 7 3 C6.625 5.625 6.625 5.625 6 8 C3.125 8.125 3.125 8.125 0 8 C-0.66 7.34 -1.32 6.68 -2 6 C-1.44444444 1.44444444 -1.44444444 1.44444444 0 0 Z " fill="#9FAAC9" transform="translate(393,382)"/>
<path d="M0 0 C2.0625 0.4375 2.0625 0.4375 4 1 C4 2.65 4 4.3 4 6 C2.68 6.33 1.36 6.66 0 7 C-0.38133299 5.0085944 -0.71325582 3.00720923 -1 1 C-0.67 0.67 -0.34 0.34 0 0 Z " fill="#9EA9C9" transform="translate(118,190)"/>
<path d="M0 0 C0.33 0 0.66 0 1 0 C0.67 3.63 0.34 7.26 0 11 C-0.99 11.33 -1.98 11.66 -3 12 C-2.14285714 3.42857143 -2.14285714 3.42857143 0 0 Z " fill="#97A2C0" transform="translate(50,191)"/>
</svg>
